<svg width="80" height="80" viewBox="0 0 80 80" fill="none" xmlns="http://www.w3.org/2000/svg">
<rect x="0.5" y="0.5" width="79" height="79" rx="39.5" fill="black" stroke="#8C8C8C"/>
<path d="M40.0586 17C37.0305 17 34.0321 17.5964 31.2345 18.7552C28.4369 19.914 25.8949 21.6125 23.7537 23.7537C19.4294 28.078 17 33.9431 17 40.0586C17 50.2505 23.6178 58.8975 32.7721 61.9643C33.925 62.1488 34.294 61.4339 34.294 60.8114V56.9144C27.9067 58.298 26.5463 53.8246 26.5463 53.8246C25.4856 51.1498 23.9868 50.435 23.9868 50.435C21.8884 49.0053 24.1482 49.0515 24.1482 49.0515C26.454 49.2129 27.6761 51.4265 27.6761 51.4265C29.6822 54.9314 33.0719 53.8938 34.3862 53.3404C34.5937 51.8416 35.1932 50.827 35.8389 50.2505C30.7199 49.674 25.3472 47.691 25.3472 38.9057C25.3472 36.3462 26.2234 34.294 27.7223 32.6568C27.4917 32.0803 26.6846 29.6822 27.9528 26.5693C27.9528 26.5693 29.8898 25.9467 34.294 28.9213C36.1156 28.414 38.0986 28.1604 40.0586 28.1604C42.0186 28.1604 44.0016 28.414 45.8233 28.9213C50.2275 25.9467 52.1644 26.5693 52.1644 26.5693C53.4326 29.6822 52.6256 32.0803 52.395 32.6568C53.8938 34.294 54.77 36.3462 54.77 38.9057C54.77 47.7141 49.3743 49.651 44.2322 50.2275C45.0623 50.9423 45.8233 52.3488 45.8233 54.4933V60.8114C45.8233 61.4339 46.1922 62.1718 47.3682 61.9643C56.5225 58.8744 63.1172 50.2505 63.1172 40.0586C63.1172 37.0305 62.5208 34.0321 61.362 31.2345C60.2032 28.4369 58.5047 25.8949 56.3635 23.7537C54.2223 21.6125 51.6804 19.914 48.8828 18.7552C46.0852 17.5964 43.0867 17 40.0586 17Z" fill="white"/>
</svg>
