<svg width="80" height="80" viewBox="0 0 80 80" fill="none" xmlns="http://www.w3.org/2000/svg">
<rect x="0.5" y="0.5" width="79" height="79" rx="39.5" fill="white" stroke="#8C8C8C"/>
<g clip-path="url(#clip0_1_276)">
<path d="M32.418 16.6446C27.4222 18.3777 23.1139 21.6671 20.1258 26.0297C17.1377 30.3924 15.6274 35.5983 15.8166 40.8827C16.0059 46.1672 17.8848 51.2517 21.1773 55.3894C24.4698 59.5271 29.0025 62.4999 34.1094 63.8711C38.2498 64.9395 42.5876 64.9864 46.7501 64.0079C50.5208 63.1609 54.007 61.3491 56.8672 58.75C59.8441 55.9623 62.0049 52.416 63.1172 48.4922C64.3259 44.2252 64.541 39.7381 63.7462 35.375H40.4961V45.0196H53.961C53.6919 46.5578 53.1152 48.0259 52.2655 49.3361C51.4158 50.6463 50.3104 51.7715 49.0157 52.6446C47.3717 53.7326 45.5181 54.4644 43.5743 54.793C41.6248 55.1556 39.6253 55.1556 37.6758 54.793C35.6999 54.3849 33.8307 53.5694 32.1876 52.3985C29.5475 50.5297 27.5652 47.8747 26.5235 44.8125C25.4645 41.6929 25.4645 38.311 26.5235 35.1914C27.265 33.0048 28.4908 31.0138 30.1094 29.3672C31.9617 27.4483 34.3068 26.0766 36.8874 25.4027C39.4679 24.7288 42.1843 24.7787 44.7383 25.5469C46.7336 26.1591 48.5582 27.2292 50.0665 28.6719C51.5847 27.1615 53.1003 25.6472 54.6133 24.1289C55.3946 23.3125 56.2461 22.5352 57.0157 21.6993C54.7131 19.5568 52.0104 17.8895 49.0626 16.793C43.6942 14.8437 37.8203 14.7914 32.418 16.6446Z" fill="white"/>
<path d="M32.418 16.6445C37.8198 14.79 43.6937 14.8411 49.0625 16.789C52.0109 17.893 54.7123 19.5683 57.0117 21.7187C56.2305 22.5547 55.4062 23.3359 54.6094 24.1484C53.0938 25.6614 51.5794 27.1693 50.0664 28.6719C48.5582 27.2292 46.7336 26.1591 44.7383 25.5469C42.1851 24.7759 39.4688 24.7231 36.8876 25.3943C34.3063 26.0654 31.9598 27.4346 30.1055 29.3515C28.4868 30.9982 27.261 32.9891 26.5195 35.1758L18.4219 28.9062C21.3203 23.1584 26.3389 18.7618 32.418 16.6445Z" fill="#E33629"/>
<path d="M16.2734 35.1172C16.7083 32.96 17.4309 30.8711 18.4219 28.9062L26.5195 35.1914C25.4605 38.311 25.4605 41.6929 26.5195 44.8125C23.8216 46.8958 21.1224 48.9896 18.4219 51.0938C15.942 46.1575 15.1857 40.5332 16.2734 35.1172Z" fill="#F8BD00"/>
<path d="M40.4961 35.3711H63.7461C64.541 39.7341 64.3259 44.2213 63.1172 48.4883C62.0049 52.412 59.8441 55.9584 56.8672 58.7461C54.2539 56.707 51.6289 54.6836 49.0157 52.6445C50.3113 51.7706 51.4171 50.6441 52.2669 49.3325C53.1166 48.021 53.6928 46.5513 53.961 45.0117H40.4961C40.4922 41.8008 40.4961 38.5859 40.4961 35.3711Z" fill="#587DBD"/>
<path d="M18.418 51.0938C21.1185 49.0104 23.8177 46.9167 26.5156 44.8125C27.5594 47.8758 29.5446 50.5308 32.1875 52.3984C33.8357 53.5639 35.709 54.3728 37.6875 54.7734C39.6369 55.136 41.6365 55.136 43.5859 54.7734C45.5298 54.4449 47.3833 53.713 49.0273 52.625C51.6406 54.6641 54.2656 56.6875 56.8789 58.7266C54.0191 61.3271 50.5329 63.1402 46.7617 63.9883C42.5993 64.9668 38.2614 64.9199 34.1211 63.8516C30.8465 62.9772 27.7878 61.4359 25.1367 59.3242C22.331 57.0962 20.0392 54.2888 18.418 51.0938Z" fill="#319F43"/>
</g>
<defs>
<clipPath id="clip0_1_276">
<rect width="50" height="50" fill="white" transform="translate(15 15)"/>
</clipPath>
</defs>
</svg>
