<svg width="30" height="30" viewBox="0 0 30 30" fill="none" xmlns="http://www.w3.org/2000/svg">
<path d="M6.26282 23.7575L13.1723 23.734L28.2533 8.79707C28.8451 8.20523 29.1708 7.41924 29.1708 6.58315C29.1708 5.74706 28.8451 4.96107 28.2533 4.36923L25.7701 1.886C24.5864 0.702318 22.5212 0.708581 21.3469 1.8813L6.26282 16.8214V23.7575ZM23.5562 4.09992L26.0441 6.57845L23.5436 9.05541L21.0604 6.57375L23.5562 4.09992ZM9.39425 18.1272L18.8355 8.77515L21.3187 11.2584L11.879 20.6073L9.39425 20.6151V18.1272Z" fill="currentColor"/>
<path d="M3.13143 30H25.0515C26.7784 30 28.1829 28.5955 28.1829 26.8685V13.2969L25.0515 16.4283V26.8685H8.07596C8.03526 26.8685 7.99298 26.8842 7.95227 26.8842C7.90061 26.8842 7.84894 26.8701 7.7957 26.8685H3.13143V4.94851H13.8519L16.9833 1.81708H3.13143C1.40445 1.81708 0 3.22153 0 4.94851V26.8685C0 28.5955 1.40445 30 3.13143 30Z" fill="currentColor"/>
</svg>
