<svg width="14" height="10" viewBox="0 0 14 10" fill="none" xmlns="http://www.w3.org/2000/svg">
<path d="M4.1131 8.08144L1.35355 5.32189C1.20485 5.17319 1.00318 5.08966 0.792889 5.08966C0.582602 5.08966 0.380928 5.17319 0.232232 5.32189C0.0835363 5.47058 0 5.67226 0 5.88255C0 5.98667 0.0205089 6.08977 0.0603553 6.18597C0.100202 6.28217 0.158605 6.36958 0.232232 6.4432L3.55641 9.76739C3.86657 10.0775 4.36758 10.0775 4.67773 9.76739L13.0916 1.35355C13.2403 1.20485 13.3238 1.00318 13.3238 0.79289C13.3238 0.582602 13.2403 0.380928 13.0916 0.232232C12.9429 0.0835365 12.7412 0 12.5309 0C12.3206 0 12.1189 0.0835365 11.9703 0.232232L4.1131 8.08144Z" fill="currentColor"/>
</svg>
