<svg width="49" height="49" viewBox="0 0 49 49" fill="none" xmlns="http://www.w3.org/2000/svg">
<g clip-path="url(#clip0_72_6)">
<path d="M18.3811 16.8438C18.3811 18.0621 17.8971 19.2305 17.0356 20.092C16.1741 20.9535 15.0057 21.4375 13.7874 21.4375C12.569 21.4375 11.4006 20.9535 10.5391 20.092C9.67759 19.2305 9.1936 18.0621 9.1936 16.8438C9.1936 15.6254 9.67759 14.457 10.5391 13.5955C11.4006 12.734 12.569 12.25 13.7874 12.25C15.0057 12.25 16.1741 12.734 17.0356 13.5955C17.8971 14.457 18.3811 15.6254 18.3811 16.8438Z" fill="currentColor"/>
<path d="M6.1311 3.0625C4.50665 3.0625 2.94873 3.70781 1.80007 4.85647C0.651414 6.00513 0.00610352 7.56305 0.00610352 9.1875V39.8125C0.00610352 41.437 0.651414 42.9949 1.80007 44.1435C2.94873 45.2922 4.50665 45.9375 6.1311 45.9375H42.8811C44.5056 45.9375 46.0635 45.2922 47.2121 44.1435C48.3608 42.9949 49.0061 41.437 49.0061 39.8125V9.1875C49.0061 7.56305 48.3608 6.00513 47.2121 4.85647C46.0635 3.70781 44.5056 3.0625 42.8811 3.0625H6.1311ZM42.8811 6.125C43.6933 6.125 44.4723 6.44766 45.0466 7.02199C45.6209 7.59632 45.9436 8.37527 45.9436 9.1875V29.0938L34.3765 23.1311C34.0893 22.9872 33.7642 22.9373 33.4471 22.9884C33.1299 23.0395 32.8369 23.1891 32.6095 23.4159L21.2476 34.7778L13.1014 29.351C12.8072 29.1552 12.4544 29.0671 12.1028 29.1017C11.7511 29.1363 11.4223 29.2915 11.172 29.5409L3.0686 36.75V9.1875C3.0686 8.37527 3.39126 7.59632 3.96559 7.02199C4.53992 6.44766 5.31888 6.125 6.1311 6.125H42.8811Z" fill="currentColor"/>
</g>
<defs>
<clipPath id="clip0_72_6">
<rect width="49" height="49" fill="currentColor"/>
</clipPath>
</defs>
</svg>
