<svg width="40" height="40" viewBox="0 0 40 40" fill="none" xmlns="http://www.w3.org/2000/svg">
<path d="M20 35C15.8333 35 12.2917 33.5417 9.375 30.625C6.45833 27.7083 5 24.1667 5 20C5 15.8333 6.45833 12.2917 9.375 9.375C12.2917 6.45833 15.8333 5 20 5C20.3889 5 20.7711 5.01389 21.1467 5.04167C21.5222 5.06944 21.89 5.11111 22.25 5.16667C21.1111 5.97222 20.2011 7.02111 19.52 8.31333C18.8389 9.60556 18.4989 11.0011 18.5 12.5C18.5 15 19.375 17.125 21.125 18.875C22.875 20.625 25 21.5 27.5 21.5C29.0278 21.5 30.4306 21.1594 31.7083 20.4783C32.9861 19.7972 34.0278 18.8878 34.8333 17.75C34.8889 18.1111 34.9306 18.4789 34.9583 18.8533C34.9861 19.2278 35 19.61 35 20C35 24.1667 33.5417 27.7083 30.625 30.625C27.7083 33.5417 24.1667 35 20 35ZM20 31.6667C22.4444 31.6667 24.6389 30.9928 26.5833 29.645C28.5278 28.2972 29.9444 26.5406 30.8333 24.375C30.2778 24.5139 29.7222 24.625 29.1667 24.7083C28.6111 24.7917 28.0556 24.8333 27.5 24.8333C24.0833 24.8333 21.1733 23.6317 18.77 21.2283C16.3667 18.825 15.1656 15.9156 15.1667 12.5C15.1667 11.9444 15.2083 11.3889 15.2917 10.8333C15.375 10.2778 15.4861 9.72222 15.625 9.16667C13.4583 10.0556 11.7011 11.4722 10.3533 13.4167C9.00556 15.3611 8.33222 17.5556 8.33333 20C8.33333 23.2222 9.47222 25.9722 11.75 28.25C14.0278 30.5278 16.7778 31.6667 20 31.6667Z" fill="white"/>
</svg>
