<svg width="29" height="29" viewBox="0 0 29 29" fill="none" xmlns="http://www.w3.org/2000/svg">
<path d="M19.7506 10.8276L16.0768 14.5L19.7506 18.1724C19.8543 18.276 19.9365 18.3991 19.9925 18.5345C20.0486 18.6699 20.0775 18.815 20.0775 18.9615C20.0775 19.1081 20.0486 19.2532 19.9925 19.3886C19.9365 19.524 19.8543 19.647 19.7506 19.7507C19.647 19.8543 19.524 19.9365 19.3886 19.9926C19.2532 20.0487 19.1081 20.0775 18.9615 20.0775C18.8149 20.0775 18.6698 20.0487 18.5344 19.9926C18.399 19.9365 18.276 19.8543 18.1724 19.7507L14.5 16.0769L10.8276 19.7507C10.7239 19.8543 10.6009 19.9365 10.4655 19.9926C10.3301 20.0487 10.185 20.0775 10.0384 20.0775C9.89186 20.0775 9.74674 20.0487 9.61134 19.9926C9.47594 19.9365 9.35292 19.8543 9.24928 19.7507C9.14565 19.647 9.06345 19.524 9.00737 19.3886C8.95128 19.2532 8.92242 19.1081 8.92242 18.9615C8.92242 18.815 8.95128 18.6699 9.00737 18.5345C9.06345 18.3991 9.14565 18.276 9.24928 18.1724L12.9231 14.5L9.24928 10.8276C9.03999 10.6183 8.92242 10.3344 8.92242 10.0385C8.92242 9.74248 9.03999 9.45862 9.24928 9.24932C9.45858 9.04003 9.74244 8.92245 10.0384 8.92245C10.3344 8.92245 10.6183 9.04003 10.8276 9.24932L14.5 12.9231L18.1724 9.24932C18.276 9.14569 18.399 9.06349 18.5344 9.0074C18.6698 8.95132 18.8149 8.92245 18.9615 8.92245C19.1081 8.92245 19.2532 8.95132 19.3886 9.0074C19.524 9.06349 19.647 9.14569 19.7506 9.24932C19.8543 9.35295 19.9365 9.47598 19.9925 9.61138C20.0486 9.74678 20.0775 9.8919 20.0775 10.0385C20.0775 10.185 20.0486 10.3301 19.9925 10.4655C19.9365 10.6009 19.8543 10.724 19.7506 10.8276ZM29 14.5C29 17.3678 28.1495 20.1712 26.5563 22.5558C24.963 24.9403 22.6984 26.7988 20.0489 27.8962C17.3993 28.9937 14.4839 29.2809 11.6711 28.7214C8.85842 28.1619 6.27477 26.7809 4.24691 24.753C2.21905 22.7252 0.83806 20.1415 0.278574 17.3288C-0.280911 14.5161 0.00623685 11.6006 1.10371 8.95109C2.20118 6.30156 4.05968 4.03697 6.44419 2.44369C8.8287 0.85041 11.6321 0 14.5 0C18.3443 0.00405975 22.0301 1.53304 24.7485 4.25143C27.4669 6.96983 28.9959 10.6556 29 14.5ZM26.7692 14.5C26.7692 12.0734 26.0496 9.70124 24.7014 7.68358C23.3533 5.66591 21.4371 4.09334 19.1952 3.16471C16.9533 2.23608 14.4863 1.99311 12.1063 2.46652C9.72635 2.93993 7.54019 4.10846 5.8243 5.82434C4.10842 7.54022 2.93989 9.72639 2.46648 12.1064C1.99307 14.4864 2.23604 16.9533 3.16467 19.1952C4.0933 21.4371 5.66587 23.3533 7.68354 24.7015C9.7012 26.0496 12.0733 26.7692 14.5 26.7692C17.7528 26.7655 20.8714 25.4717 23.1715 23.1716C25.4717 20.8714 26.7655 17.7529 26.7692 14.5Z" fill="black"/>
</svg>
