<svg width="40" height="40" viewBox="0 0 40 40" fill="none" xmlns="http://www.w3.org/2000/svg">
<path d="M18.75 6.25V2.5C18.75 2.16848 18.8817 1.85054 19.1161 1.61612C19.3505 1.3817 19.6685 1.25 20 1.25C20.3315 1.25 20.6495 1.3817 20.8839 1.61612C21.1183 1.85054 21.25 2.16848 21.25 2.5V6.25C21.25 6.58152 21.1183 6.89946 20.8839 7.13388C20.6495 7.3683 20.3315 7.5 20 7.5C19.6685 7.5 19.3505 7.3683 19.1161 7.13388C18.8817 6.89946 18.75 6.58152 18.75 6.25ZM30 20C30 21.9778 29.4135 23.9112 28.3147 25.5557C27.2159 27.2002 25.6541 28.4819 23.8268 29.2388C21.9996 29.9957 19.9889 30.1937 18.0491 29.8079C16.1093 29.422 14.3275 28.4696 12.9289 27.0711C11.5304 25.6725 10.578 23.8907 10.1921 21.9509C9.8063 20.0111 10.0043 18.0004 10.7612 16.1732C11.5181 14.3459 12.7998 12.7841 14.4443 11.6853C16.0888 10.5865 18.0222 10 20 10C22.6513 10.0029 25.1931 11.0574 27.0679 12.9321C28.9426 14.8069 29.9971 17.3487 30 20ZM27.5 20C27.5 18.5166 27.0601 17.0666 26.236 15.8332C25.4119 14.5999 24.2406 13.6386 22.8701 13.0709C21.4997 12.5032 19.9917 12.3547 18.5368 12.6441C17.082 12.9335 15.7456 13.6478 14.6967 14.6967C13.6478 15.7456 12.9335 17.082 12.6441 18.5368C12.3547 19.9917 12.5032 21.4997 13.0709 22.8701C13.6386 24.2406 14.5999 25.4119 15.8332 26.236C17.0666 27.0601 18.5166 27.5 20 27.5C21.9885 27.4979 23.8949 26.7071 25.301 25.301C26.7071 23.8949 27.4979 21.9885 27.5 20ZM9.11563 10.8844C9.35018 11.1189 9.6683 11.2507 10 11.2507C10.3317 11.2507 10.6498 11.1189 10.8844 10.8844C11.1189 10.6498 11.2507 10.3317 11.2507 10C11.2507 9.6683 11.1189 9.35018 10.8844 9.11563L8.38437 6.61563C8.14982 6.38107 7.8317 6.24931 7.5 6.24931C7.1683 6.24931 6.85018 6.38107 6.61563 6.61563C6.38107 6.85018 6.24931 7.1683 6.24931 7.5C6.24931 7.8317 6.38107 8.14982 6.61563 8.38437L9.11563 10.8844ZM9.11563 29.1156L6.61563 31.6156C6.38107 31.8502 6.24931 32.1683 6.24931 32.5C6.24931 32.8317 6.38107 33.1498 6.61563 33.3844C6.85018 33.6189 7.1683 33.7507 7.5 33.7507C7.8317 33.7507 8.14982 33.6189 8.38437 33.3844L10.8844 30.8844C11.0005 30.7682 11.0926 30.6304 11.1555 30.4786C11.2183 30.3269 11.2507 30.1642 11.2507 30C11.2507 29.8358 11.2183 29.6731 11.1555 29.5214C11.0926 29.3696 11.0005 29.2318 10.8844 29.1156C10.7682 28.9995 10.6304 28.9074 10.4786 28.8445C10.3269 28.7817 10.1642 28.7493 10 28.7493C9.83576 28.7493 9.67312 28.7817 9.52138 28.8445C9.36964 28.9074 9.23176 28.9995 9.11563 29.1156ZM30 11.25C30.1642 11.2501 30.3268 11.2179 30.4786 11.1552C30.6303 11.0924 30.7682 11.0004 30.8844 10.8844L33.3844 8.38437C33.6189 8.14982 33.7507 7.8317 33.7507 7.5C33.7507 7.1683 33.6189 6.85018 33.3844 6.61563C33.1498 6.38107 32.8317 6.24931 32.5 6.24931C32.1683 6.24931 31.8502 6.38107 31.6156 6.61563L29.1156 9.11563C28.9406 9.29044 28.8214 9.51326 28.7731 9.75587C28.7248 9.99847 28.7495 10.25 28.8442 10.4785C28.9389 10.707 29.0993 10.9023 29.305 11.0397C29.5108 11.177 29.7526 11.2502 30 11.25ZM30.8844 29.1156C30.6498 28.8811 30.3317 28.7493 30 28.7493C29.6683 28.7493 29.3502 28.8811 29.1156 29.1156C28.8811 29.3502 28.7493 29.6683 28.7493 30C28.7493 30.3317 28.8811 30.6498 29.1156 30.8844L31.6156 33.3844C31.7318 33.5005 31.8696 33.5926 32.0214 33.6555C32.1731 33.7183 32.3358 33.7507 32.5 33.7507C32.6642 33.7507 32.8269 33.7183 32.9786 33.6555C33.1304 33.5926 33.2682 33.5005 33.3844 33.3844C33.5005 33.2682 33.5926 33.1304 33.6555 32.9786C33.7183 32.8269 33.7507 32.6642 33.7507 32.5C33.7507 32.3358 33.7183 32.1731 33.6555 32.0214C33.5926 31.8696 33.5005 31.7318 33.3844 31.6156L30.8844 29.1156ZM7.5 20C7.5 19.6685 7.3683 19.3505 7.13388 19.1161C6.89946 18.8817 6.58152 18.75 6.25 18.75H2.5C2.16848 18.75 1.85054 18.8817 1.61612 19.1161C1.3817 19.3505 1.25 19.6685 1.25 20C1.25 20.3315 1.3817 20.6495 1.61612 20.8839C1.85054 21.1183 2.16848 21.25 2.5 21.25H6.25C6.58152 21.25 6.89946 21.1183 7.13388 20.8839C7.3683 20.6495 7.5 20.3315 7.5 20ZM20 32.5C19.6685 32.5 19.3505 32.6317 19.1161 32.8661C18.8817 33.1005 18.75 33.4185 18.75 33.75V37.5C18.75 37.8315 18.8817 38.1495 19.1161 38.3839C19.3505 38.6183 19.6685 38.75 20 38.75C20.3315 38.75 20.6495 38.6183 20.8839 38.3839C21.1183 38.1495 21.25 37.8315 21.25 37.5V33.75C21.25 33.4185 21.1183 33.1005 20.8839 32.8661C20.6495 32.6317 20.3315 32.5 20 32.5ZM37.5 18.75H33.75C33.4185 18.75 33.1005 18.8817 32.8661 19.1161C32.6317 19.3505 32.5 19.6685 32.5 20C32.5 20.3315 32.6317 20.6495 32.8661 20.8839C33.1005 21.1183 33.4185 21.25 33.75 21.25H37.5C37.8315 21.25 38.1495 21.1183 38.3839 20.8839C38.6183 20.6495 38.75 20.3315 38.75 20C38.75 19.6685 38.6183 19.3505 38.3839 19.1161C38.1495 18.8817 37.8315 18.75 37.5 18.75Z" fill="black"/>
</svg>
