<svg width="30" height="30" viewBox="0 0 30 30" fill="none" xmlns="http://www.w3.org/2000/svg">
<path d="M24.0411 25.9135L16.4145 18.2869C15.8092 18.7711 15.1132 19.1545 14.3263 19.437C13.5394 19.7194 12.7021 19.8607 11.8144 19.8607C9.61517 19.8607 7.75412 19.0988 6.23123 17.5751C4.70834 16.0514 3.94649 14.1904 3.94568 11.992C3.94568 9.79278 4.70753 7.93173 6.23123 6.40884C7.75493 4.88595 9.61597 4.1241 11.8144 4.12329C14.0136 4.12329 15.8746 4.88514 17.3975 6.40884C18.9204 7.93254 19.6822 9.79359 19.683 11.992C19.683 12.8797 19.5418 13.717 19.2593 14.5039C18.9769 15.2908 18.5935 15.9868 18.1093 16.5921L25.7359 24.2187L24.0411 25.9135ZM11.8144 17.4395C13.3276 17.4395 14.614 16.9097 15.6736 15.8501C16.7333 14.7904 17.2627 13.5044 17.2619 11.992C17.2619 10.4788 16.7321 9.19234 15.6724 8.13269C14.6128 7.07304 13.3268 6.54362 11.8144 6.54442C10.3012 6.54442 9.01472 7.07425 7.95508 8.1339C6.89543 9.19355 6.366 10.4796 6.36681 11.992C6.36681 13.5052 6.89664 14.7916 7.95629 15.8513C9.01594 16.9109 10.302 17.4403 11.8144 17.4395Z" fill="black"/>
</svg>
